<svg width="448" height="512" xmlns="http://www.w3.org/2000/svg">
 <!--! Font Awesome Pro 6.1.1 by @fontawesome - https://fontawesome.com License - https://fontawesome.com/license (Commercial License) Copyright 2022 Fonticons, Inc. -->

 <g>
  <title>Layer 1</title>
  <path fill="#ffffff" id="svg_1" d="m2,96c0,-17.67 14.33,-32 32,-32l384,0c17.7,0 32,14.33 32,32c0,17.7 -14.3,32 -32,32l-384,0c-17.67,0 -32,-14.3 -32,-32zm0,160c0,-17.7 14.33,-32 32,-32l384,0c17.7,0 32,14.3 32,32c0,17.7 -14.3,32 -32,32l-384,0c-17.67,0 -32,-14.3 -32,-32zm416,192l-384,0c-17.67,0 -32,-14.3 -32,-32c0,-17.7 14.33,-32 32,-32l384,0c17.7,0 32,14.3 32,32c0,17.7 -14.3,32 -32,32z"/>
 </g>
</svg>