<svg xmlns="http://www.w3.org/2000/svg" viewBox="0 0 120.9 40.9"><defs><style>.cls-1{stroke:#a5a5a4;stroke-miterlimit:10;stroke-width:0.9px;}.cls-2,.cls-3,.cls-4{fill:#fff;}.cls-3,.cls-4{font-size:8px;}.cls-3{font-family:Helvetica;}.cls-4{font-family:Helvetica-Bold, Helvetica;font-weight:700;}.cls-5{letter-spacing:-0.05em;}</style></defs><title>riot_pc_es</title><g id="Layer_2" data-name="Layer 2"><g id="EN"><rect class="cls-1" x="0.45" y="0.45" width="120" height="40" rx="6.86"/><path class="cls-2" d="M19.55,14.67H14.31v-2h5.24v-1h3.19V9.57H12.86V31.32h9.88v-4.9H19.55ZM17.27,30.06h-2v-.69h2Zm-.66-5a1.11,1.11,0,1,1,1.11,1.11A1.11,1.11,0,0,1,16.61,25.08Zm3.55,4.29v.69h-2v-.69Z"/><rect class="cls-2" x="21.13" y="13.16" width="17.24" height="11.8"/><polygon class="cls-2" points="32.11 29.36 31.52 26.63 28.25 26.63 28.19 26.9 27.63 29.36 25.2 29.36 25.2 31.18 34.62 31.18 34.62 29.36 32.11 29.36"/><text class="cls-3" transform="translate(45.99 17.52)">Disponible en</text><text class="cls-4" transform="translate(45.99 27.39)"><tspan class="cls-5">V</tspan><tspan x="4.9" y="0">ersión para PC</tspan></text></g></g></svg>